<svg width="17" height="15" viewBox="0 0 17 15" fill="none" xmlns="http://www.w3.org/2000/svg">
<path d="M14.208 1.75973C14.033 1.24348 13.543 0.875977 12.9655 0.875977H3.34055C2.76305 0.875977 2.2818 1.24348 2.09805 1.75973L0.278046 7.00098V14.001C0.278046 14.4822 0.671796 14.876 1.15305 14.876H2.02805C2.5093 14.876 2.90305 14.4822 2.90305 14.001V13.126H13.403V14.001C13.403 14.4822 13.7968 14.876 14.278 14.876H15.153C15.6343 14.876 16.028 14.4822 16.028 14.001V7.00098L14.208 1.75973ZM3.34055 10.501C2.6143 10.501 2.02805 9.91473 2.02805 9.18848C2.02805 8.46223 2.6143 7.87598 3.34055 7.87598C4.0668 7.87598 4.65305 8.46223 4.65305 9.18848C4.65305 9.91473 4.0668 10.501 3.34055 10.501ZM12.9655 10.501C12.2393 10.501 11.653 9.91473 11.653 9.18848C11.653 8.46223 12.2393 7.87598 12.9655 7.87598C13.6918 7.87598 14.278 8.46223 14.278 9.18848C14.278 9.91473 13.6918 10.501 12.9655 10.501ZM2.02805 6.12598L3.34055 2.18848H12.9655L14.278 6.12598H2.02805Z" fill="black"/>
</svg>
