<svg width="17" height="17" viewBox="0 0 17 17" fill="none" xmlns="http://www.w3.org/2000/svg">
<path d="M16.0697 3.9876L12.4281 0.931763L11.4068 2.14301L15.0485 5.19885L16.0697 3.9876ZM4.89139 2.14301L3.87806 0.931763L0.236389 3.97968L1.25764 5.19093L4.89139 2.14301ZM8.54889 5.7926H7.36139V10.5426L11.1218 12.7988L11.7156 11.8251L8.54889 9.94885V5.7926ZM8.15306 2.62593C4.21847 2.62593 1.02806 5.81635 1.02806 9.75093C1.02806 13.6855 4.21056 16.8759 8.15306 16.8759C12.0876 16.8759 15.2781 13.6855 15.2781 9.75093C15.2781 5.81635 12.0876 2.62593 8.15306 2.62593ZM8.15306 15.2926C5.08931 15.2926 2.61139 12.8147 2.61139 9.75093C2.61139 6.68718 5.08931 4.20926 8.15306 4.20926C11.2168 4.20926 13.6947 6.68718 13.6947 9.75093C13.6947 12.8147 11.2168 15.2926 8.15306 15.2926Z" fill="black"/>
</svg>
